<?xml version="1.0" standalone="no"?>
<!DOCTYPE svg PUBLIC "-//W3C//DTD SVG 20010904//EN"
 "http://www.w3.org/TR/2001/REC-SVG-20010904/DTD/svg10.dtd">
<svg version="1.0" xmlns="http://www.w3.org/2000/svg"
 width="512.000000pt" height="512.000000pt" viewBox="0 0 512.000000 512.000000"
 preserveAspectRatio="xMidYMid meet">
<metadata>
Created by potrace 1.11, written by Peter Selinger 2001-2013
</metadata>
<g transform="translate(0.000000,512.000000) scale(0.100000,-0.100000)"
fill="#000000" stroke="none">
<path d="M2529 4963 c-1 -49 -2 -101 -4 -118 -11 -121 -37 -281 -60 -367 -8
-32 -21 -82 -29 -110 -44 -165 -181 -460 -288 -617 -351 -519 -832 -901 -1350
-1071 -50 -17 -101 -32 -112 -35 -12 -2 -36 -8 -54 -14 -31 -9 -139 -31 -232
-46 -62 -10 -237 -23 -321 -24 -36 -1 -36 -2 -36 -41 0 -22 5 -40 11 -41 6 0
47 -2 91 -4 74 -3 176 -11 235 -20 14 -2 45 -7 70 -10 25 -3 51 -8 59 -11 8
-3 30 -7 50 -10 43 -7 267 -70 296 -83 11 -6 70 -30 131 -56 108 -45 279 -137
380 -205 45 -31 203 -150 231 -175 170 -151 297 -280 405 -415 54 -66 174
-239 206 -295 147 -261 235 -500 287 -775 3 -14 7 -36 10 -50 4 -24 15 -125
21 -205 1 -22 3 -66 3 -98 l1 -58 42 3 42 3 2 60 c7 155 25 309 48 409 9 35
17 75 20 87 13 70 62 217 109 333 226 556 791 1131 1348 1372 294 127 571 189
889 198 l75 2 0 38 c1 21 -4 40 -10 42 -5 1 -67 5 -136 8 -70 3 -133 8 -140
10 -8 3 -39 7 -69 11 -325 34 -727 198 -1035 419 -188 135 -429 364 -555 526
-19 24 -43 53 -53 65 -30 33 -142 203 -194 295 -127 221 -240 548 -268 775 -4
28 -8 57 -10 65 -5 20 -17 159 -20 240 -1 36 -3 68 -4 73 0 4 -19 7 -41 7
l-40 0 -1 -87z"/>
</g>
</svg>
