<?xml version="1.0" encoding="UTF-8" standalone="no"?>
<svg
   xmlns:dc="http://purl.org/dc/elements/1.1/"
   xmlns:cc="http://creativecommons.org/ns#"
   xmlns:rdf="http://www.w3.org/1999/02/22-rdf-syntax-ns#"
   xmlns:svg="http://www.w3.org/2000/svg"
   xmlns="http://www.w3.org/2000/svg"
   xmlns:sodipodi="http://sodipodi.sourceforge.net/DTD/sodipodi-0.dtd"
   xmlns:inkscape="http://www.inkscape.org/namespaces/inkscape"
   version="1.1"
   id="Layer_1"
   x="0px"
   y="0px"
   viewBox="0 0 26.880002 26.57"
   xml:space="preserve"
   sodipodi:docname="wish.svg"
   width="16"
   height="16"
   inkscape:version="0.92.4 (5da689c313, 2019-01-14)"><metadata
     id="metadata21"><rdf:RDF><cc:Work
         rdf:about=""><dc:format>image/svg+xml</dc:format><dc:type
           rdf:resource="http://purl.org/dc/dcmitype/StillImage" /><dc:title></dc:title></cc:Work></rdf:RDF></metadata><defs
     id="defs19"><clipPath
       clipPathUnits="userSpaceOnUse"
       id="clipPath25"><rect
         id="rect27"
         width="26.655586"
         height="26.629404"
         x="54.860001"
         y="68.810402" /></clipPath></defs><sodipodi:namedview
     pagecolor="#ffffff"
     bordercolor="#666666"
     borderopacity="1"
     objecttolerance="10"
     gridtolerance="10"
     guidetolerance="10"
     inkscape:pageopacity="0"
     inkscape:pageshadow="2"
     inkscape:window-width="1920"
     inkscape:window-height="1017"
     id="namedview17"
     showgrid="false"
     inkscape:zoom="17.788009"
     inkscape:cx="21.532454"
     inkscape:cy="18.267778"
     inkscape:window-x="-8"
     inkscape:window-y="-8"
     inkscape:window-maximized="1"
     inkscape:current-layer="Layer_1" /><style
     type="text/css"
     id="style10">.st0{fill-rule:evenodd;clip-rule:evenodd;}</style><g
     id="g14"
     clip-path="url(#clipPath25)"
     transform="translate(-54.643553,-68.775125)"><path
       class="st0"
       d="M 30.45,57.96 H 29.52 C 29.52,50.34 26.67,43.68 20.98,37.99 15.29,32.3 8.63,29.45 1.01,29.45 v -0.93 c 7.62,0 14.28,-2.85 19.97,-8.55 C 26.67,14.25 29.52,7.59 29.52,0 h 0.93 c 0,7.62 2.85,14.28 8.54,19.97 5.69,5.69 12.35,8.54 19.97,8.54 v 0.93 c -7.62,0 -14.28,2.85 -19.97,8.54 -5.69,5.7 -8.54,12.36 -8.54,19.98 z M 13.51,92.85 H 13.08 C 13.08,89.36 11.77,86.3 9.16,83.69 6.55,81.08 3.49,79.77 0,79.77 v -0.43 c 3.49,0 6.55,-1.31 9.16,-3.92 2.61,-2.62 3.92,-5.67 3.92,-9.15 h 0.43 c 0,3.49 1.31,6.55 3.92,9.16 2.61,2.61 5.66,3.92 9.16,3.92 v 0.43 c -3.49,0 -6.55,1.31 -9.16,3.92 -2.62,2.6 -3.92,5.66 -3.92,9.15 z m 54.86,2.72 h -0.43 c 0,-3.49 -1.31,-6.55 -3.92,-9.16 -2.61,-2.61 -5.66,-3.92 -9.16,-3.92 v -0.43 c 3.49,0 6.55,-1.31 9.16,-3.92 2.61,-2.62 3.92,-5.67 3.92,-9.15 h 0.43 c 0,3.49 1.31,6.55 3.92,9.16 2.61,2.61 5.66,3.92 9.16,3.92 v 0.43 c -3.49,0 -6.55,1.31 -9.16,3.92 -2.62,2.6 -3.92,5.65 -3.92,9.15 z m 30.58,-31 H 98.17 C 98.17,58.18 95.78,52.59 91,47.81 86.22,43.03 80.64,40.64 74.24,40.64 v -0.78 c 6.39,0 11.98,-2.39 16.76,-7.18 4.78,-4.79 7.17,-10.38 7.17,-16.75 h 0.78 c 0,6.39 2.39,11.98 7.17,16.76 4.78,4.78 10.36,7.17 16.76,7.17 v 0.78 c -6.39,0 -11.98,2.39 -16.76,7.17 -4.78,4.78 -7.17,10.37 -7.17,16.76 z"
       id="path12"
       inkscape:connector-curvature="0"
       style="clip-rule:evenodd;fill-rule:evenodd" /></g></svg>